<?xml version="1.0" encoding="UTF-8"?>
<svg data-bbox="3.335 0 141.256 82.784" xmlns="http://www.w3.org/2000/svg" viewBox="0 0 148.86 86.77" data-type="color">
    <g>
        <path fill="#5a189a" d="M117.72 34.14c-1.72-5.22.11-10.84 3.56-15.36-1.28-2.94-2.57-5.88-3.85-8.82a88.54 88.54 0 0 1-77.84-3.43c-1.54 2.82-3.07 5.63-4.61 8.45 3.04 4.8 4.37 10.56 2.2 15.61-2.16 5.02-7.75 7.93-14.7 7.3-1.54 2.81-3.07 5.63-4.61 8.45a133.9 133.9 0 0 0 117.69 5.18c-1.28-2.94-2.57-5.88-3.85-8.82-6.98.02-12.29-3.37-14-8.56Z" data-color="1"/>
        <path fill="#3c096c" d="M118.27 32.7c-1.37-5.32.82-10.81 4.57-15.09-1.09-3.02-2.17-6.04-3.26-9.05A88.52 88.52 0 0 1 42.14 0c-1.72 2.71-3.44 5.42-5.16 8.12 2.72 4.99 3.66 10.83 1.16 15.72-2.48 4.86-8.26 7.4-15.15 6.31-1.72 2.71-3.44 5.42-5.16 8.12a133.9 133.9 0 0 0 117.09 12.94c-1.09-3.02-2.17-6.04-3.26-9.05-6.96-.44-12.04-4.18-13.4-9.46Z" data-color="2"/>
        <path fill="#ffffff" d="M128.13 44.93c.54 1.67 1.08 3.35 1.62 5.02A131.06 131.06 0 0 1 23.18 38.18c.89-1.52 1.78-3.03 2.67-4.55 7.6.41 13.21-2.95 15.65-8.11 2.45-5.21 1.74-11.36-.92-16.94.89-1.52 1.78-3.03 2.67-4.55a91.4 91.4 0 0 0 74.35 8.22c.54 1.67 1.08 3.35 1.62 5.02-3.81 4.86-5.85 10.71-4.59 16.33 1.25 5.57 5.99 10.07 13.5 11.33" data-color="3"/>
        <path fill="#200352" d="m43.8 8.76.5-.84c10.15 5.56 21.15 9.12 32.42 10.68 0 .01.02.03.02.03s-13.7 1.89-31.62-5.85c-.33-1.33-.76-2.67-1.32-4.01Z" data-color="4"/>
        <path fill="#3c096c" d="M99.94 15.86c.25-.83.42-1.3.43-1.31l-1.34-.51s-.19.5-.46 1.4l1.37.41Z" data-color="2"/>
        <path fill="#3c096c" d="M104.3 54.35c-.58-.78-1.14-1.59-1.66-2.4l1.21-.77c.5.78 1.04 1.56 1.6 2.31zm-3.13-4.91c-.46-.85-.89-1.74-1.28-2.62l1.31-.58c.37.86.79 1.71 1.23 2.53l-1.26.68Zm-2.35-5.34c-.32-.92-.61-1.85-.86-2.79l1.38-.37c.24.9.52 1.8.83 2.69zm-1.52-5.63c-.18-.95-.34-1.91-.46-2.88l1.42-.18c.12.92.26 1.84.44 2.78l-1.41.27Zm-.72-5.78c-.06-.99-.09-1.96-.08-2.91h1.43c0 .92.03 1.86.08 2.82l-1.43.08Zm0-5.81c.06-1.01.15-1.98.25-2.9l1.42.17c-.1.9-.19 1.84-.25 2.81l-1.43-.08Zm.67-5.77c.18-1.05.38-2 .57-2.85l1.39.32c-.19.82-.38 1.75-.56 2.77l-1.41-.24Z" data-color="2"/>
        <path fill="#3c096c" d="m107.14 57.71 1.04-.98c-.32-.34-.64-.69-.95-1.04l-1.08.94c.32.36.64.72.98 1.08Z" data-color="2"/>
        <path fill="#3c096c" d="M4.51 66.67c2.34-2.45 8.2-9.02 9.28-10.31.93-1.11 1.62-2.78 3.73-2.08.72.24 1.08.35 1.79.59 1.6.52.61 1.84-.24 2.83-1.35 1.58-7.53 8.92-8.73 10.56-.82 1.12-1.39 2.88-3.9 2.05l-2.08-.7c-1.88-.65-.77-1.97.14-2.93Z" data-color="2"/>
        <path fill="#3c096c" d="M14.39 69.89c2.75-3.42 5.63-7.03 6.31-8.05.54-.8.44-1.49.44-1.49s1.34-1.07 3.51-.46c1.99.56 2.01 1.77 1.48 2.83-.15.29-.35.61-.57.91.05.01.08.02.13.03.92-1.07 3.31-2.58 5.84-1.96 2.39.59 2.52 2.92 1.58 4.8-1.03 2.07-3.93 6.05-4.5 7.18-.4.81-.18 1.45-.18 1.45s-1.43 1.28-3.88.68c-2.91-.72-2.19-2.41-1.59-3.5.73-1.34 3.39-4.37 3.98-5.45.49-.9.35-1.64-.54-1.87-.91-.24-1.93.38-2.24.52-1.17 1.57-2.7 3.63-3.6 5.09-.87 1.41-1.45 3.53-4.04 2.79-.81-.23-1.21-.35-2.02-.58-1.88-.55-.94-1.93-.1-2.93Z" data-color="2"/>
        <path fill="#3c096c" d="M32.72 76.89s1.23 1 3.46 1.44c3.05.59 4.7-.86 5.85-3.02-.09-.02-.14-.02-.23-.04 0 0-1.76 1.96-5.13 1.3-2.03-.4-4.82-2.14-2.49-6.75 1.96-3.88 5.15-6.33 8.45-5.71 2.56.48 2.76 2.29 2.26 3.77.07.01.11.02.18.03.42-.61.62-.92 1.03-1.53.66-.97 1.28-1.16 1.97-1.05.57.09.86.14 1.43.23 1.64.25 1.14 1.6.85 2.28-.7 1.66-2.91 6.87-3.65 8.37-2.16 4.54-5.55 7.22-11.64 6.04-2.94-.57-4.82-1.86-4.13-3.52.29-.71 1.06-1.5 1.79-1.84m10.58-5.9c.17-.39.26-.59.43-.98-.02-.3-.08-1.2-.98-1.37-.98-.18-2.34.39-3.3 2.48-.74 1.61-.05 2.44.75 2.59 1.08.2 2.09-.52 3.1-2.72" data-color="2"/>
        <path fill="#3c096c" d="M53.46 69c.25-.68.22-1.52.1-1.89.44-.5 1.31-1.05 2.82-.87 2.2.27 2.24 1.75 1.64 3.49.05 0 .08 0 .13.01.82-1.61 2.66-3.01 4.46-2.85 2.05.19 2.65 1.56 1.96 3.8-.63 2.04-2.2 2.97-3.54 2.85-.87-.08-1.18-.4-1.35-.53.44-.94.42-1.98-.22-2.04-.56-.06-1.18.51-1.57 1.27-.94 2.53-1.58 4.97-2.15 6.79-.48 1.51-1.15 1.92-2.53 1.76-.87-.11-1.3-.16-2.16-.27-1.17-.15-1.91-.83-1.21-2.41.93-2.12 2.99-7.29 3.65-9.11Z" data-color="2"/>
        <path fill="#3c096c" d="M73.25 67.6c3.78.15 5.39 2.24 5.24 4.92-.16 2.92-3.24 4.46-5.96 4.35-2.27-.09-2.86-1.3-2.86-1.3-.06.02-.09.03-.14.04-.18 1.31.63 2.9 3.31 3.01 2.11.08 3.8-.96 3.8-.96.73.68.98 1.42.92 2.13-.15 1.71-2.4 2.95-6.06 2.79-5.75-.25-7.44-3.87-6.7-7.7.86-4.43 4.01-7.46 8.43-7.28Zm-2.04 6.51c1.34.06 2.63-.4 2.72-1.5.06-.71-.43-1.23-1.34-1.27-1.52-.06-2.36 1.18-2.57 2.15-.01.16-.06.39-.06.39.13.03.56.19 1.25.22Z" data-color="2"/>
        <path fill="#3c096c" d="M81.66 78.14s1.66.88 4.03.84c.94-.01 1.8-.33 1.78-.99-.02-.55-.67-.91-1.81-1.23-.54-.15-.81-.23-1.34-.38-2.55-.74-3.46-1.98-3.44-3.47.06-3.33 2.47-5.11 6.54-5.23 3.73-.1 5.12.88 5.24 1.73.13.94-.7 2.31-1.13 2.76 0 0-1.6-.75-3.46-.69-.72.02-1.61.21-1.58.96.01.47.39.79 1.33.97.61.14.92.21 1.54.35 2.68.54 3.94 1.95 4.1 3.56.34 3.35-2.54 5.38-7.5 5.46-4.75.08-5.73-1.09-5.62-2.17.13-1.2 1.26-2.42 1.34-2.48Z" data-color="2"/>
        <path fill="#3c096c" d="M97.02 77.64s1.77.77 4.14.57c.94-.08 1.76-.45 1.64-1.1-.09-.55-.79-.86-1.98-1.11-.56-.11-.84-.17-1.39-.29-2.65-.57-3.73-1.74-3.9-3.24-.4-3.33 1.77-5.27 5.83-5.65 3.72-.35 5.24.53 5.48 1.37.26.93-.39 2.36-.77 2.83 0 0-1.7-.64-3.56-.46-.72.07-1.58.31-1.46 1.07.08.47.49.76 1.46.88l1.59.25c2.76.36 4.21 1.69 4.59 3.28.79 3.32-1.82 5.54-6.77 5.94-4.74.39-5.88-.71-5.91-1.79-.03-1.21.93-2.5 1-2.56Z" data-color="2"/>
        <path fill="#3c096c" d="M115.86 64.95c4.31-.71 7.49 2.04 8.83 5.32 1.98 4.87.19 8.8-5.28 9.66-4.94.78-7.93-2.3-8.8-5.7-1.27-4.94.46-8.48 5.25-9.28m3.74 6.41c-.43-1.26-1.24-2.32-2.65-2.09-1.99.33-1.9 2.12-1.26 4.14.41 1.31 1.19 2.43 2.69 2.19 2.08-.33 1.95-2.15 1.23-4.24Z" data-color="2"/>
        <path fill="#3c096c" d="M127.76 72.06c-.61-2.13-1.08-4.34-1.7-5.97-.27-.71-.73-1.07-.98-1.29 0-.58.47-1.67 2.16-2.05 1.9-.42 3.23.22 3.97 1.72.82 1.66 1.33 4.85 2.12 6.49.41.86 1.17 1.41 2.2 1.17.95-.23 1.22-1.05 1.31-1.45-.62-1.8-1.66-4.23-2.49-6.16-.56-1.29-1.98-2.69.34-3.29.75-.19 1.12-.29 1.86-.5 1.23-.33 2.11.31 2.78 1.87 1.28 2.93 3.57 8.01 3.99 8.92.49 1.06.98 1.33 1.26 1.52.1.43-.44 1.64-2.31 2.13-1.99.51-3.15-.11-3.77-.83-.36-.41-.63-.86-.82-1.32l-.2.05c.29 1.06-.2 3.36-3.3 4.05-4.38.97-5.88-3.09-6.44-5.05Z" data-color="2"/>
        <path fill="#5a189a" d="M4.74 65.06c2.23-2.41 7.82-8.88 8.85-10.15.88-1.09 1.52-2.77 3.62-1.99.71.26 1.07.39 1.79.65 1.6.57.65 1.88-.16 2.85-1.29 1.56-7.2 8.8-8.34 10.42-.78 1.11-1.3 2.87-3.78 1.96-.82-.3-1.23-.46-2.05-.77-1.86-.71-.8-2.02.07-2.96Z" data-color="1"/>
        <path fill="#5a189a" d="M14.48 68.59c2.63-3.37 5.38-6.94 6.03-7.95.51-.79.39-1.49.39-1.49s1.3-1.04 3.46-.36c1.99.62 2.03 1.83 1.53 2.89-.14.29-.33.6-.54.9.05.02.08.02.13.04.89-1.06 3.22-2.51 5.75-1.82 2.38.65 2.56 2.99 1.66 4.86-.98 2.05-3.79 5.99-4.32 7.11-.39.8-.16 1.45-.16 1.45s-1.39 1.26-3.81.6c-2.88-.79-2.2-2.47-1.63-3.55.7-1.33 3.26-4.31 3.83-5.38.46-.89.31-1.64-.57-1.9-.91-.26-1.9.34-2.21.47-1.12 1.55-2.59 3.59-3.45 5.03-.83 1.39-1.36 3.52-3.92 2.71-.8-.25-1.2-.38-2-.64-1.85-.6-.96-1.97-.16-2.96Z" data-color="1"/>
        <path fill="#5a189a" d="M32.68 76.06s1.23 1.03 3.45 1.51c3.02.65 4.64-.78 5.75-2.92-.09-.02-.13-.03-.22-.04 0 0-1.72 1.93-5.07 1.21-2.01-.43-4.8-2.24-2.57-6.81 1.88-3.85 5-6.24 8.3-5.56 2.56.53 2.78 2.34 2.3 3.81.07.01.11.02.18.03.41-.6.61-.9 1.01-1.51.64-.96 1.26-1.14 1.95-1.02l1.43.25c1.64.28 1.16 1.61.88 2.29-.68 1.64-2.82 6.82-3.54 8.31-2.09 4.5-5.42 7.14-11.45 5.85-2.91-.62-4.78-1.95-4.13-3.6.28-.7 1.02-1.48 1.74-1.81Zm10.39-5.72c.17-.39.25-.58.42-.97-.02-.3-.1-1.21-1-1.38-.98-.19-2.32.35-3.24 2.42-.71 1.59-.02 2.44.79 2.6 1.08.22 2.07-.48 3.04-2.67Z" data-color="1"/>
        <path fill="#5a189a" d="M53.17 68.5c.24-.68.21-1.52.08-1.88.43-.5 1.29-1.03 2.81-.83 2.2.29 2.25 1.77 1.66 3.5.05 0 .08 0 .13.02.81-1.6 2.64-2.98 4.44-2.8 2.06.2 2.66 1.57 1.97 3.8-.62 2.03-2.19 2.95-3.52 2.81-.87-.09-1.18-.41-1.35-.54.43-.93.4-1.97-.24-2.04-.56-.06-1.18.5-1.56 1.25-.92 2.52-1.54 4.95-2.1 6.75-.47 1.5-1.13 1.91-2.5 1.73-.86-.11-1.29-.17-2.15-.3-1.16-.17-1.9-.85-1.22-2.42.91-2.1 2.91-7.24 3.55-9.05" data-color="1"/>
        <path fill="#5a189a" d="M72.95 67.25c3.79.16 5.39 2.23 5.24 4.9-.17 2.9-3.25 4.44-5.96 4.32-2.27-.1-2.85-1.3-2.85-1.3-.06.02-.09.03-.14.04-.18 1.31.64 2.9 3.3 3.01 2.1.09 3.79-.95 3.79-.95.72.67.98 1.41.91 2.12-.15 1.7-2.4 2.94-6.04 2.77-5.72-.27-7.42-3.88-6.69-7.7.84-4.41 3.99-7.4 8.42-7.22Zm-2.04 6.48c1.34.07 2.62-.39 2.72-1.48.06-.7-.43-1.22-1.34-1.26-1.52-.07-2.36 1.17-2.57 2.13-.01.16-.06.39-.06.39.14.03.56.19 1.25.23Z" data-color="1"/>
        <path fill="#5a189a" d="M81.33 77.75s1.65.87 4.01.83c.94-.02 1.8-.34 1.78-.99-.01-.55-.66-.9-1.8-1.22-.53-.15-.8-.22-1.33-.37-2.54-.73-3.45-1.96-3.42-3.45.07-3.32 2.5-5.09 6.58-5.23 3.74-.12 5.12.84 5.23 1.68.12.94-.73 2.31-1.16 2.76 0 0-1.59-.73-3.46-.67-.72.02-1.61.21-1.59.97.01.47.38.78 1.32.96.61.14.92.21 1.53.34 2.68.53 3.92 1.92 4.06 3.52.3 3.33-2.58 5.38-7.51 5.48-4.73.09-5.7-1.07-5.58-2.14.13-1.2 1.26-2.41 1.35-2.47Z" data-color="1"/>
        <path fill="#5a189a" d="M96.63 77.17s1.75.75 4.11.53c.94-.09 1.75-.47 1.65-1.12-.08-.55-.78-.85-1.96-1.08-.55-.11-.83-.16-1.38-.27-2.63-.54-3.69-1.7-3.85-3.19-.35-3.31 1.84-5.26 5.91-5.7 3.73-.4 5.23.46 5.45 1.29.24.93-.43 2.36-.81 2.83 0 0-1.69-.61-3.55-.41-.72.08-1.58.33-1.47 1.08.07.47.48.75 1.44.86.63.09.94.14 1.58.23 2.75.33 4.17 1.62 4.52 3.21.73 3.3-1.9 5.56-6.82 6.02-4.71.44-5.83-.65-5.85-1.73-.02-1.21.95-2.5 1.03-2.56Z" data-color="1"/>
        <path fill="#5a189a" d="M115.62 64.21c4.31-.8 7.4 1.88 8.64 5.14 1.84 4.84 0 8.83-5.44 9.79-4.91.87-7.82-2.16-8.62-5.55-1.17-4.91.63-8.48 5.42-9.38m3.57 6.35c-.4-1.26-1.18-2.3-2.59-2.04-1.99.37-1.93 2.15-1.34 4.17.38 1.3 1.13 2.41 2.62 2.14 2.07-.37 1.98-2.19 1.31-4.27" data-color="1"/>
        <path fill="#5a189a" d="M127.25 71.07c-.55-2.13-.96-4.33-1.53-5.95-.25-.71-.7-1.05-.94-1.27.02-.59.51-1.69 2.2-2.12 1.89-.48 3.2.14 3.89 1.62.77 1.65 1.18 4.85 1.91 6.47.38.85 1.12 1.39 2.14 1.12.94-.25 1.23-1.09 1.33-1.49-.56-1.79-1.52-4.22-2.28-6.13-.51-1.29-1.87-2.65.44-3.33.74-.22 1.11-.33 1.86-.56 1.23-.37 2.07.25 2.69 1.8 1.17 2.92 3.28 7.98 3.67 8.88.45 1.06.92 1.32 1.19 1.49.08.43-.47 1.67-2.33 2.21-1.97.57-3.09-.02-3.69-.73-.34-.4-.6-.85-.77-1.31l-.2.05c.26 1.06-.28 3.39-3.35 4.16-4.34 1.08-5.73-2.96-6.23-4.91" data-color="1"/>
    </g>
</svg>
