<?xml version="1.0" encoding="UTF-8"?>
<svg id="Camada_2" data-name="Camada 2" xmlns="http://www.w3.org/2000/svg" viewBox="0 0 512 438.31">
  <defs>
    <style>
      .cls-1 {
        fill: #3f157a;
      }
    </style>
  </defs>
  <g id="Layer_2" data-name="Layer 2">
    <g id="Layer_1-2" data-name="Layer 1-2">
      <g id="Contact_Solid-12" data-name="Contact Solid-12">
        <path class="cls-1" d="M159.04,298.35c-24.03-13.23-41.84-35.43-50.13-62.5-4.03-13.17-5.58-26.75-4.63-40.4.48-6.86-4.69-12.82-11.55-13.3-6.84-.47-12.82,4.69-13.3,11.55-1.18,16.71.72,33.34,5.65,49.45,10.2,33.3,32.2,60.66,61.94,77.03,1.9,1.04,3.96,1.55,5.99,1.55,4.39,0,8.65-2.33,10.92-6.45,3.31-6.03,1.12-13.6-4.9-16.91h.01Z"/>
        <path class="cls-1" d="M502,393.44l-117.13-87.55c-.47-.35-.96-.66-1.44-.97,50.04-89.02,26.85-203.42-57.59-265.3C234.62-27.23,106.48-7.48,39.62,83.75-27.23,174.96-7.48,303.11,83.75,369.97c84.44,61.88,200.52,49.55,270.33-24.98.32.27.63.56.98.81l117.13,87.55c4.48,3.35,9.7,4.96,14.89,4.96,7.58,0,15.08-3.45,19.96-10,8.24-11.02,5.98-26.63-5.04-34.85h0ZM226.95,358.17c-40.41,5.84-80.81-4.24-113.76-28.38-33.39-24.47-55.24-60.48-61.56-101.39-6.3-40.91,3.7-81.82,28.17-115.21,24.79-33.84,61.32-55.77,102.84-61.77,40.41-5.84,80.81,4.24,113.76,28.38,33.39,24.47,55.24,60.48,61.56,101.39,6.3,40.91-3.7,81.82-28.17,115.21-24.79,33.84-61.32,55.77-102.84,61.77h0Z"/>
      </g>
    </g>
  </g>
</svg>